<svg preserveAspectRatio="none" width="100%" height="100%" overflow="visible" style="display: block;" viewBox="0 0 260 154" fill="none" xmlns="http://www.w3.org/2000/svg">
<g id="Calque_2" clip-path="url(#clip0_0_87)">
<g id="Group">
<path id="Vector" d="M95.2433 117.995C105.847 124.988 120.723 128.79 131.993 121.163C139.384 115.903 141.99 105.743 139.884 97.2915C139.765 96.6699 138.777 96.6938 138.694 97.3154C137.837 101.416 137.087 105.3 135.695 108.875C131.386 120.924 119.533 126.196 107.751 121.115C100.956 118.234 94.2317 112.461 91.6849 105.563C88.912 98.2239 92.0776 91.8286 96.9213 85.7561C97.3021 85.3019 96.8261 84.5847 96.2549 84.764C90.4115 86.4136 85.1751 92.4143 84.7823 98.9052C83.9493 106.675 89.1857 114.027 95.2433 117.995Z" fill="var(--fill-0, white)"/>
<path id="Vector_2" d="M65.8479 111.744C65.241 111.684 64.9316 112.556 65.4671 112.879C67.5498 114.349 70.1204 116.166 70.9534 118.414C71.5485 120.279 69.5134 121.558 67.9187 121.94C59.4452 123.506 53.5305 112.736 50.5314 106.089C48.5678 101.583 46.497 94.8051 51.1622 91.482C52.0428 90.944 52.9354 90.7886 54.0541 91.2787C55.1728 91.7808 56.2082 92.8327 57.2912 93.8608C57.4578 94.0162 57.7077 94.0759 57.9338 93.9803C58.2432 93.8488 58.386 93.5021 58.2551 93.1913C57.6363 91.721 56.827 90.2507 55.3275 89.139C51.7215 86.5331 47.4848 89.4379 46.0924 92.9403C42.8553 100.041 48.901 109.413 52.7688 115.246C56.5414 120.219 61.4922 126.387 68.5019 125.921C71.4771 125.706 74.6784 123.458 75.1188 120.135C75.5115 114.995 70.0728 112.078 65.8122 111.756L65.8479 111.744Z" fill="var(--fill-0, white)"/>
<path id="Vector_3" d="M79.534 73.7067C77.5823 72.4875 75.7614 71.2443 74.0953 69.8457C69.2159 65.7695 65.5028 60.3305 65.598 53.7201C65.6099 53.1224 64.7769 52.8833 64.4674 53.3854C59.4452 62.4463 68.6566 72.3799 77.4752 74.5196C67.3594 80.1976 69.9657 97.7099 77.4157 104.822C77.9155 105.324 78.7367 104.595 78.3201 104.033C74.4761 97.3991 72.8814 88.637 75.8447 81.4528C76.8087 79.1337 78.1416 77.0538 79.7482 74.675C79.9625 74.3522 79.8673 73.91 79.5459 73.7067H79.534Z" fill="var(--fill-0, white)"/>
<path id="Vector_4" d="M81.6405 48.2931C79.5102 50.2894 77.6537 52.5008 75.9756 54.8318C75.8328 55.035 75.8209 55.3219 75.9756 55.5371C76.1661 55.812 76.5469 55.8718 76.8206 55.6686C79.1294 53.995 81.3549 52.2976 83.6161 50.7556C87.2577 48.3051 90.9589 46.3207 95.1838 45.4003C98.8255 44.7787 101.932 44.9341 105.93 44.6472C106.632 44.6472 106.966 43.667 106.406 43.2367C98.6708 37.2717 87.7814 42.3162 81.6524 48.2931H81.6405Z" fill="var(--fill-0, white)"/>
<path id="Vector_5" d="M113.987 47.8149C114.344 47.2531 113.547 46.6076 113.059 47.0619C100.73 58.5972 98.0519 62.8408 80.141 61.5498C79.7125 61.5259 79.6054 62.1594 79.9982 62.2909C83.1281 63.3787 86.4009 64.1438 89.8284 64.335C100.694 65.3391 109.072 56.5173 113.987 47.8149Z" fill="var(--fill-0, white)"/>
<path id="Vector_6" d="M106.74 80.353C106.454 80.9148 107.204 81.5006 107.68 81.0822C111.131 78.5361 115.594 78.2253 119.593 79.337C120.926 79.7314 122.211 80.3052 123.508 81.13C123.687 81.2376 123.913 81.2615 124.115 81.1539C124.413 80.9985 124.532 80.628 124.377 80.3172C120.949 74.0893 110.036 73.91 106.74 80.353Z" fill="var(--fill-0, white)"/>
<path id="Vector_7" d="M118.819 64.9805C114.118 64.7295 109.822 65.0522 105.276 65.6619C103.836 65.901 102.408 66.1639 100.575 66.5584C100.099 66.654 99.8608 67.2278 100.135 67.6342C104.645 73.7665 115.284 71.6029 119.39 66.0324C119.7 65.6021 119.366 64.9566 118.831 64.9805H118.819Z" fill="var(--fill-0, white)"/>
<path id="Vector_8" d="M164.626 91.2907C168.387 90.5376 172.064 89.665 175.099 88.9119C177.812 96.9209 178.11 105.755 176.527 114.158C176.824 112.222 176.598 110.237 175.396 108.6C172.147 105.085 167.03 104.763 162.603 104.798C153.272 104.99 145.132 108.97 140.407 117.445C134.719 127.642 143.561 137.647 154.153 136.559C158.771 136.153 162.734 133.858 166.042 131.228C170.85 127.224 174.777 121.988 176.205 115.856C175.527 118.952 174.599 121.964 173.444 124.857C164.792 145.525 145.929 154.622 124.282 149.756C110.845 147.222 100.908 137.91 89.6379 130.846C86.1391 129.973 94.3269 139.357 95.1957 140.074C97.6711 142.596 100.48 144.82 103.526 146.696C127.947 162.248 163.281 151.836 176.17 126.076C181.109 114.445 182.037 100.316 177.598 88.3142C185.869 86.294 194.176 84.3695 202.483 82.4927C214.681 79.8151 226.927 77.0418 239.245 74.9978C240.03 74.8902 239.828 73.7187 239.09 73.8143C223.036 76.0616 207.088 78.9066 191.201 82.0505C194.985 80.7834 198.77 79.5282 202.554 78.3089C215.431 74.3164 228.403 70.1087 241.744 68.1124C242.541 68.0168 242.363 66.8573 241.625 66.929C228.058 68.4471 214.931 72.1886 201.792 75.7389C199.96 76.2529 198.127 76.7908 196.306 77.3168C212.087 70.9813 228.034 64.9805 244.469 60.6652C245.279 60.4501 244.898 59.3623 244.207 59.4938C229.783 62.6256 215.812 67.3593 201.888 72.1408C200.662 72.5711 199.448 73.0134 198.222 73.4438C214.288 66.0922 230.545 59.0395 247.23 53.4213C247.552 53.3376 247.742 53.0148 247.659 52.6801C247.575 52.3574 247.242 52.1781 246.933 52.2617C231.557 56.6368 216.859 62.7213 202.019 68.5547C201.495 68.7699 200.971 68.985 200.448 69.2002C216.859 60.5815 233.389 52.1781 250.253 44.5396C250.551 44.4201 250.693 44.0734 250.574 43.7626C250.455 43.4518 250.11 43.3084 249.801 43.4279C233.758 49.9427 218.144 57.354 202.495 64.7295C199.686 66.0922 196.889 67.443 194.093 68.7818C213.61 57.1986 233.413 46.0578 253.359 35.2157C253.645 35.0603 253.752 34.7137 253.609 34.4268C253.466 34.1279 253.109 34.0084 252.812 34.1518C234.925 43.2845 217.014 52.3454 199.353 61.8965C213.705 52.3813 228.165 43.0335 242.827 34.0323C247.147 31.4383 251.491 28.7248 255.966 26.5732C256.251 26.4297 256.382 26.095 256.251 25.7962C256.12 25.4973 255.763 25.3539 255.466 25.4854C237.257 34.4268 220.251 45.4362 202.864 55.824C200.281 57.4258 197.687 59.0156 195.116 60.6055C212.741 47.815 230.593 35.3233 249.027 23.7521C252.395 21.708 256.216 19.4846 259.691 17.6915C259.976 17.5361 260.083 17.1895 259.94 16.9026C259.798 16.6037 259.441 16.4842 259.143 16.6396C256.692 17.8708 254.204 19.0662 251.836 20.4289C235.151 29.7887 219.156 40.4156 203.232 51.0066C191.748 58.8004 180.252 66.5226 168.982 74.5674C167.756 73.2645 166.459 72.0332 165.114 70.8737C165.459 70.4553 165.78 69.9891 166.054 69.4632C167.994 65.5184 166.756 60.4979 163.84 57.4138C160.544 53.7799 155.7 52.6682 151.059 52.1183C144.965 51.1381 139.003 49.4526 133.076 47.7074C131.351 47.1695 129.637 46.6196 127.935 46.0338C132.434 46.6196 137.123 46.4164 140.693 43.8463C142.859 42.2206 143.93 38.5269 141.859 36.3633C139.527 33.9008 136.302 33.5302 133.362 33.064C129.708 32.6098 126.102 32.6815 122.568 32.813C121.889 32.7891 121.747 33.841 122.401 33.9964C127.459 35.4667 132.755 35.8254 137.408 37.8934C138.194 38.3237 138.848 38.6464 139.027 39.2202C139.027 39.7701 138.575 40.4156 138.134 40.7862C136.337 42.1847 134.1 42.4597 131.755 42.8183C128.387 43.2128 124.865 43.2606 121.283 43.4877C121.033 43.4877 120.795 43.5953 120.688 43.8344C120.545 44.1332 120.676 44.4799 120.973 44.6233C124.758 46.3925 128.602 47.9464 132.481 49.4526C138.075 51.676 144.382 53.8994 150.071 55.9794C153.32 57.0313 157.223 58.5733 159.175 61.3944C160.401 63.0679 160.746 64.9208 160.282 66.7736C159.651 68.6503 157.45 69.4751 155.176 69.9533C152.975 70.2641 150.88 69.8935 148.679 70.551C147.191 70.9215 145.679 71.842 144.668 73.0971C144.311 73.5633 143.942 74.2686 143.406 74.5913C141.55 75.8943 138.349 75.703 136.468 74.3283C132.874 71.5312 134.481 66.4628 137.432 63.4983C137.872 63.1038 137.468 62.2909 136.873 62.4463C134.635 62.9245 132.553 64.61 131.529 66.929C129.22 71.8659 132.541 78.0579 138.063 78.5958C141.264 79.062 145.144 77.9862 146.893 74.8902C148.072 73.4079 150.178 73.133 152.023 73.396C155.831 74.3164 160.877 74.6511 164.102 71.9256C165.304 73.1091 166.447 74.3403 167.518 75.6313C161.448 79.9825 155.438 84.4292 149.523 89.0434C147.12 91.1353 148.536 93.3467 152.285 93.0957C156.033 92.8447 160.841 92.0557 164.602 91.3026L164.626 91.2907ZM164.673 129.387C161.401 131.599 157.676 133.141 153.998 133.069C148.905 133.165 143.644 129.638 143.395 124.319C143.145 120.386 145.929 116.752 148.667 114.003C152.32 110.273 157.604 108.922 162.805 108.396C166.173 108.145 170.743 108.169 173.23 110.405C178.669 116.537 169.791 125.945 164.673 129.375V129.387Z" fill="var(--fill-0, white)"/>
<path id="Vector_9" d="M103.574 27.7207C103.241 31.4144 108.739 31.5937 108.644 27.8881C108.132 22.485 111.809 17.9306 117.51 19.1738C119.331 19.5085 121.116 20.2616 122.853 21.1581C123.484 21.4928 124.055 20.5604 123.472 20.142C114.951 13.1252 104.835 16.2212 103.562 27.7207H103.574Z" fill="var(--fill-0, white)"/>
<path id="Vector_10" d="M93.6247 24.1585C94.5768 26.8122 97.7544 26.1189 98.397 24.1705C98.3375 24.7801 98.3018 25.4136 98.2899 26.0591C98.4446 29.4301 103.407 29.0356 103.05 25.7005C102.063 19.3172 105.895 12.0016 113.107 12.2526C115.415 12.145 117.748 12.8264 120.057 13.4958C120.759 13.699 121.128 12.659 120.449 12.3721C109.465 6.78972 100.016 11.8701 98.5041 23.2381C98.4684 22.9034 98.3851 22.5567 98.1947 22.1861C96.0049 17.7991 96.8499 11.5832 99.8489 7.65039C100.932 6.27571 102.384 5.17597 104.133 4.66196C104.407 4.57828 104.597 4.3153 104.562 4.01646C104.526 3.68175 104.228 3.45463 103.895 3.49049C95.1719 4.87712 91.1255 16.3408 93.6247 24.1585Z" fill="var(--fill-0, white)"/>
<path id="Vector_11" d="M92.3989 19.891C87.9718 14.5955 90.2092 5.6063 95.3028 1.03998C95.517 0.848715 95.5646 0.514011 95.398 0.262982C95.2195 -0.0119537 94.8386 -0.0836762 94.5649 0.0956299C87.4958 4.65 83.6518 15.0498 88.2455 22.7958C90.1735 25.9994 94.7196 22.7958 92.3989 19.8791V19.891Z" fill="var(--fill-0, white)"/>
<path id="Vector_12" d="M69.6324 21.2179C69.8348 21.4809 70.0252 21.7319 70.2513 21.9829C72.1911 24.1585 74.9403 22.0307 74.4999 19.9508C75.3687 20.9549 76.4041 21.8395 77.5942 22.5089C79.7125 23.6445 81.3668 21.9351 81.3668 20.2496C81.938 21.2298 82.6402 22.1503 83.4852 22.9751C85.9248 25.1387 88.9358 21.3255 86.2819 19.4368C82.6521 16.8548 81.4382 11.2604 82.8306 7.0288C83.3185 5.46286 84.1397 3.98059 85.1989 2.64178C85.3774 2.41466 85.3655 2.07995 85.1632 1.86478C84.9371 1.62571 84.5681 1.6018 84.3182 1.82892C79.7125 5.85733 78.2368 12.8144 80.4742 18.4207C80.2243 18.2294 79.9506 18.0501 79.5816 17.9306C75.8209 16.6994 73.405 11.9896 74.4523 8.05682C74.7856 6.59846 75.4996 5.18792 76.3922 3.87301C76.5469 3.64589 76.5231 3.32314 76.3208 3.11993C76.0947 2.88085 75.7138 2.88085 75.4758 3.11993C74.2619 4.3153 73.167 5.71389 72.4292 7.37546C70.8225 10.9018 71.2986 15.0378 73.286 18.3012C69.5967 15.504 67.7997 9.90965 69.0731 5.28355C69.2754 4.61414 68.2757 4.21967 67.9663 4.84126C65.7884 9.13266 65.9075 14.3564 68.0734 18.7076C64.884 17.058 61.0043 15.0378 62.0753 10.9257C62.2539 10.2922 61.3256 9.88574 60.9805 10.4595C57.8386 14.8585 61.6826 20.0823 64.7531 23.1544C66.9666 25.3061 69.5729 23.3576 69.6324 21.2298V21.2179Z" fill="var(--fill-0, white)"/>
<path id="Vector_13" d="M50.3291 87.5253C51.2931 87.1188 51.6501 85.8637 51.0432 85.015C51.0075 84.9672 50.948 84.9313 50.9123 84.8835C51.781 83.7359 50.8646 81.6799 49.0676 82.1222C42.5459 83.8196 34.8103 87.6209 32.8942 94.9127C31.4661 101.714 34.2509 108.6 34.7032 115.21C35.1316 119.573 35.1435 124.008 34.8579 128.443C34.846 128.61 35.084 128.622 35.1078 128.479C35.8457 124.092 36.3217 119.621 36.2265 115.126C36.2265 110.704 35.3934 106.209 35.1911 101.846C34.3104 93.8249 39.1541 89.5574 45.5687 86.9873C43.736 88.5891 42.1413 90.5137 41.3677 92.8088C39.0232 99.6344 41.5343 106.866 41.5462 113.8C41.6533 117.194 41.3201 120.697 39.7016 123.721C39.654 123.817 39.6778 123.936 39.773 123.984C39.8682 124.044 39.9872 124.008 40.0467 123.912C41.8913 120.888 42.4388 117.254 42.5221 113.788C42.9862 104.165 38.6067 91.6493 50.341 87.5133L50.3291 87.5253Z" fill="var(--fill-0, white)"/>
<path id="Vector_14" d="M40.6655 82.7318C42.8196 82.6601 42.6411 79.4326 40.4989 79.576C39.1779 79.7075 37.5832 79.7195 36.0361 80.0183C25.8489 81.5245 23.3735 93.1077 23.1354 101.75L23.0878 106.137C23.0878 106.209 23.1473 106.281 23.2187 106.281C23.3021 106.281 23.3735 106.221 23.3735 106.137L23.7662 101.798C25.1586 91.4222 28.1695 81.393 40.6536 82.7199L40.6655 82.7318Z" fill="var(--fill-0, white)"/>
<path id="Vector_15" d="M29.2763 78.7751C34.4413 75.8704 40.5941 76.2409 46.3661 77.1733C48.3654 77.5439 50.1506 75.4281 49.4008 73.5035C47.342 66.929 39.6659 64.4546 33.5607 65.8412C28.0505 66.8453 22.4095 69.5229 19.6366 74.6391C17.7562 77.8906 16.9589 81.5006 16.6256 85.0269C16.6018 85.3258 16.8041 85.6127 17.1017 85.6724C17.423 85.7322 17.7443 85.529 17.8038 85.2062C18.9939 78.7393 22.6713 72.2962 29.3239 70.7542C33.0965 69.8218 37.9283 69.1882 41.2844 71.4236C28.6456 72.2006 19.6723 78.9066 19.708 93.7651C19.6842 94.5182 20.8148 94.578 20.8981 93.8488C21.6121 87.9676 23.9923 81.7277 29.2763 78.799V78.7751Z" fill="var(--fill-0, white)"/>
</g>
<path id="Vector_16" d="M46.6874 63.4146C48.8058 65.0044 51.5787 67.4549 52.8521 69.5468C56.8627 76.1692 59.4214 79.074 62.6228 85.3975C64.7769 86.9754 61.4684 78.4046 61.0995 77.6873C59.6952 74.2686 58.0171 71.065 57.2912 67.5864C56.8508 64.347 57.5649 60.9282 58.6836 57.9637C60.195 54.3297 63.1702 49.5602 62.8489 44.9939C62.7775 43.4997 62.3491 42.0174 61.6707 40.6188C62.48 40.5829 63.2535 40.1167 63.6939 39.4354C64.2651 39.6386 64.8959 39.6506 65.4909 39.3876C66.7881 38.8497 67.407 37.3435 66.8595 36.0405C65.0268 31.4622 63.5392 26.0591 59.8023 22.3057C54.1136 16.6516 45.5687 14.7509 37.8569 15.755C32.7395 16.4842 28.3005 19.4487 24.385 22.5328C22.4333 24.0151 20.5053 25.5212 18.3156 26.2624C18.018 26.358 17.8514 26.6807 17.9347 26.9796C18.018 27.3023 18.3513 27.4816 18.6607 27.398C21.2075 26.7166 23.314 25.2343 25.3609 23.9075C31.1448 19.6639 37.964 17.0341 45.0689 18.863C55.0062 21.0864 58.148 25.3778 60.6829 33.0521C59.2786 31.3547 57.8148 29.6692 56.1606 28.1032C47.0206 19.4129 39.8682 20.9429 29.7048 26.8003C28.0743 27.637 26.4201 28.5933 24.8254 28.7726C24.5279 28.8085 24.3017 29.0834 24.3136 29.3942C24.7302 31.5579 33.7868 26.5732 35.4291 26.2385C45.1879 21.959 51.3169 27.6729 56.4105 34.7973C53.9708 33.327 51.1146 32.7652 48.3893 33.7693C47.8299 33.9725 47.9727 34.881 48.5678 34.9169C52.3642 35.4548 55.2323 38.4791 56.7318 41.7664C53.7685 39.6864 50.6623 37.5108 47.2706 35.7656C42.2722 33.1358 36.6073 31.5818 31.002 31.4622C28.2766 31.3547 25.6941 31.7491 22.9807 31.5937C16.5661 31.1753 9.71117 30.3027 4.07012 27.0035C3.02284 26.2982 2.01126 25.3897 1.82084 24.2063C1.79704 24.027 1.63043 23.8836 1.45192 23.9075C1.2615 23.9194 1.11869 24.0868 1.14249 24.278C1.2853 25.844 2.41589 26.9676 3.47508 27.8283C6.78354 30.3266 10.7942 31.6176 14.7215 32.7174C18.6964 33.7574 22.7665 34.5104 26.9199 34.618C38.1425 34.5463 45.4497 39.7103 53.3876 46.2251C55.3156 47.803 55.8868 50.5165 54.7801 52.7518C54.2683 53.7799 53.7804 54.8438 53.4234 55.9555C52.6855 49.2135 47.9727 44.2408 40.1657 42.9976C39.0589 42.8063 36.1075 42.2804 34.965 42.0533C25.9798 40.1048 16.3162 38.4193 8.8424 32.7293C6.21229 32.4305 13.4124 37.2 14.1859 37.4989C19.589 40.4754 25.4323 42.5673 31.3471 44.3603C23.3854 44.8743 15.8878 47.8986 8.05694 48.4007C7.27148 48.4007 7.27148 49.5722 8.03314 49.5961C16.1139 49.7276 24.028 47.1814 31.9659 47.3846C37.0596 48.1138 41.808 49.4407 44.7595 53.1822C43.1052 52.1781 41.332 51.3652 39.4516 50.8273C32.2516 48.7473 25.0515 50.9468 18.8511 54.4254C14.0788 56.4336 8.21165 53.6006 4.73658 50.0144C4.53426 49.7873 4.18913 49.7395 3.92731 49.9308C3.66549 50.134 3.60599 50.5045 3.8083 50.7675C5.10551 52.5128 6.78354 53.9233 8.61629 55.0589C10.4609 56.1706 12.496 57.0313 14.7334 57.4138C16.9469 57.8561 19.3985 57.4018 21.4217 56.326C25.349 54.6166 29.8952 53.5408 34.1438 54.007C33.0013 54.0309 31.8707 54.0787 30.7401 54.1743C24.7421 54.8318 19.6485 58.5853 15.7688 62.9364C11.1631 67.8972 2.83243 68.0287 1.2139 60.3783C1.04728 59.6252 -0.0714057 59.8404 0.0476038 60.5935C0.797363 66.3911 6.80734 69.6544 12.1985 67.6462C14.6977 66.8453 16.8755 65.2076 18.7678 63.4265C20.6124 61.753 22.6832 60.3425 24.9206 59.3742C21.9572 61.2749 19.1367 63.8808 16.5661 67.18C14.7691 69.5827 13.4957 72.3918 12.3413 75.0934C10.2229 80.4726 6.2837 84.5368 1.57093 87.7763C0.928274 88.2186 1.59473 89.1629 2.22548 88.7804C4.71277 87.2503 7.11677 85.529 9.25894 83.4251C12.5079 80.3411 14.3168 76.1334 16.4352 72.3321C22.6832 61.9921 36.286 54.8557 46.735 63.3787L46.6874 63.4146Z" fill="var(--fill-0, white)"/>
</g>
<defs>
<clipPath id="clip0_0_87">
<rect width="260" height="154" fill="white"/>
</clipPath>
</defs>
</svg>
