<?xml version="1.0" encoding="UTF-8"?>
<svg id="Calque_2" xmlns="http://www.w3.org/2000/svg" version="1.1" viewBox="0 0 843.1 497.2">
  <!-- Generator: Adobe Illustrator 30.6.0, SVG Export Plug-In . SVG Version: 2.1.4 Build 109)  -->
  <defs>
    <style>
      .st0 {
        fill: #fff;
      }
    </style>
  </defs>
  <g>
    <path class="st0" d="M308.8,380.9c34.4,22.6,82.6,34.8,119.2,10.2,24-17,32.4-49.8,25.6-77.1-.4-2-3.6-1.9-3.9,0-2.8,13.2-5.2,25.8-9.7,37.3-14,38.9-52.4,55.9-90.6,39.5-22-9.3-43.8-27.9-52.1-50.2-9-23.7,1.3-44.3,17-63.9,1.2-1.5-.3-3.8-2.2-3.2-19,5.3-35.9,24.7-37.2,45.6-2.7,25.1,14.3,48.8,33.9,61.6Z"/>
    <path class="st0" d="M213.5,360.7c-2-.2-3,2.6-1.2,3.7,6.8,4.7,15.1,10.6,17.8,17.9,1.9,6-4.7,10.1-9.8,11.4-27.5,5.1-46.7-29.7-56.4-51.2-6.4-14.6-13.1-36.4,2.1-47.2,2.9-1.7,5.8-2.3,9.4-.6,3.6,1.6,7,5,10.5,8.3.5.5,1.4.7,2.1.4,1-.4,1.5-1.6,1-2.6-2-4.7-4.6-9.5-9.5-13.1-11.7-8.4-25.4,1-29.9,12.3-10.5,22.9,9.1,53.2,21.7,72,12.2,16,28.3,36,51,34.5,9.6-.7,20-8,21.5-18.7,1.3-16.6-16.4-26-30.2-27Z"/>
    <path class="st0" d="M257.9,237.9c-6.3-3.9-12.2-7.9-17.6-12.5-15.8-13.2-27.8-30.7-27.6-52,0-1.9-2.7-2.7-3.7-1.1-16.3,29.3,13.6,61.3,42.2,68.2-32.8,18.3-24.3,74.9-.2,97.8,1.6,1.6,4.3-.7,2.9-2.5-12.5-21.4-17.6-49.7-8-72.9,3.1-7.5,7.4-14.2,12.7-21.9.7-1,.4-2.5-.7-3.1Z"/>
    <path class="st0" d="M264.7,155.9c-6.9,6.5-12.9,13.6-18.4,21.1-.5.7-.5,1.6,0,2.3.6.9,1.9,1.1,2.7.4,7.5-5.4,14.7-10.9,22-15.8,11.8-7.9,23.8-14.3,37.5-17.3,11.8-2,21.9-1.5,34.8-2.4,2.3,0,3.4-3.2,1.5-4.6-25.1-19.3-60.4-3-80.3,16.3Z"/>
    <path class="st0" d="M346.1,259.4c-.9,1.8,1.5,3.7,3.1,2.4,11.2-8.2,25.6-9.2,38.6-5.6,4.3,1.3,8.5,3.1,12.7,5.8.6.4,1.3.4,2,0,1-.5,1.3-1.7.8-2.7-11.1-20.1-46.5-20.7-57.2.1Z"/>
    <path class="st0" d="M335.9,89.5c-1.1,11.9,16.7,12.5,16.4.6-1.7-17.4,10.3-32.1,28.8-28.1,5.9,1.1,11.7,3.5,17.3,6.4,2,1.1,3.9-1.9,2-3.3-27.6-22.6-60.4-12.6-64.6,24.4Z"/>
    <path class="st0" d="M303.6,78c3.1,8.6,13.4,6.3,15.5,0-.2,2-.3,4-.4,6.1.5,10.9,16.6,9.6,15.4-1.2-3.2-20.6,9.2-44.2,32.6-43.4,7.5-.3,15.1,1.8,22.5,4,2.3.7,3.5-2.7,1.3-3.6-35.6-18-66.2-1.6-71.2,35.1-.1-1.1-.4-2.2-1-3.4-7.1-14.2-4.4-34.2,5.4-46.9,3.5-4.4,8.2-8,13.9-9.6.9-.3,1.5-1.1,1.4-2.1-.1-1.1-1.1-1.8-2.1-1.7-28.3,4.5-41.4,41.5-33.3,66.7Z"/>
    <path class="st0" d="M299.6,64.2c-14.3-17.1-7.1-46.1,9.4-60.8.7-.6.8-1.7.3-2.5-.6-.9-1.8-1.1-2.7-.5-22.9,14.7-35.4,48.3-20.5,73.3,6.3,10.3,21,0,13.5-9.4Z"/>
    <path class="st0" d="M225.8,68.5c.6.8,1.3,1.7,2,2.5,6.3,7,15.2.2,13.8-6.5,2.8,3.3,6.2,6.1,10,8.2,6.9,3.7,12.2-1.8,12.2-7.3,1.9,3.2,4.1,6.1,6.9,8.8,7.9,7,17.7-5.3,9.1-11.4-11.8-8.3-15.7-26.4-11.2-40,1.6-5,4.3-9.8,7.7-14.1.6-.7.6-1.8,0-2.5-.7-.8-1.9-.8-2.7-.1-14.9,13-19.7,35.5-12.4,53.6-.8-.6-1.7-1.2-2.9-1.6-12.2-4-20-19.2-16.6-31.9,1.1-4.7,3.4-9.3,6.3-13.5.5-.7.4-1.8-.2-2.4-.7-.8-2-.8-2.7,0-3.9,3.9-7.5,8.4-9.9,13.7-5.2,11.4-3.7,24.7,2.8,35.3-12-9-17.8-27.1-13.7-42,.7-2.1-2.6-3.4-3.6-1.4-7,13.9-6.7,30.7.3,44.8-10.3-5.3-22.9-11.8-19.4-25.1.6-2.1-2.4-3.4-3.5-1.5-10.2,14.2,2.3,31.1,12.2,41,7.2,6.9,15.6.6,15.8-6.2Z"/>
    <path class="st0" d="M163.2,282.6c3.1-1.3,4.3-5.3,2.3-8.1-.1-.2-.3-.3-.4-.4,2.8-3.7-.2-10.3-6-8.9-21.1,5.5-46.2,17.7-52.4,41.3-4.6,22,4.4,44.2,5.9,65.5,1.4,14.1,1.4,28.4.5,42.7,0,.5.8.6.8,0,2.4-14.2,3.9-28.6,3.6-43.1,0-14.3-2.7-28.8-3.4-42.9-2.9-25.9,12.9-39.7,33.6-48-5.9,5.2-11.1,11.4-13.6,18.8-7.6,22.1.6,45.4.6,67.8.3,11-.7,22.3-6,32-.2.3,0,.7.2.9.3.2.7,0,.9-.2,6-9.8,7.7-21.5,8-32.7,1.5-31.1-12.7-71.5,25.3-84.8Z"/>
    <path class="st0" d="M131.8,267.1c7-.2,6.4-10.7-.5-10.2-4.3.4-9.4.5-14.5,1.4-33,4.9-41,42.3-41.8,70.2v14.2c-.1.2,0,.4.3.5.3,0,.5-.2.5-.4,0,0,1.3-14,1.3-14,4.5-33.5,14.3-65.9,54.7-61.6Z"/>
    <path class="st0" d="M94.9,254.3c16.8-9.4,36.7-8.2,55.4-5.2,6.5,1.2,12.3-5.6,9.9-11.9-6.7-21.2-31.6-29.2-51.4-24.7-17.9,3.2-36.2,11.9-45.1,28.4-6.1,10.5-8.7,22.1-9.7,33.5,0,1,.6,1.9,1.5,2.1,1,.2,2.1-.5,2.3-1.5,3.8-20.9,15.8-41.7,37.3-46.7,12.2-3,27.9-5.1,38.8,2.1-41,2.5-70.1,24.2-70,72.1,0,2.4,3.6,2.6,3.9.3,2.3-19,10-39.1,27.2-48.6Z"/>
    <path class="st0" d="M151.4,204.7c6.9,5.1,15.9,13.1,20,19.8,13,21.4,21.3,30.8,31.7,51.2,7,5.1-3.8-22.6-4.9-24.9-4.5-11-10-21.4-12.4-32.6-1.4-10.5.9-21.5,4.5-31.1,4.9-11.7,14.5-27.1,13.5-41.9-.2-4.8-1.6-9.6-3.8-14.1,2.6-.1,5.1-1.6,6.6-3.8,1.8.6,3.9.7,5.8-.1,4.2-1.8,6.2-6.6,4.4-10.8-5.9-14.8-10.8-32.2-22.9-44.3-18.5-18.3-46.1-24.4-71.2-21.1-16.6,2.4-31,11.9-43.7,21.9-6.3,4.8-12.6,9.6-19.7,12-1,.3-1.5,1.3-1.2,2.3.3,1,1.3,1.6,2.4,1.4,8.3-2.2,15.1-7,21.7-11.3,18.8-13.7,40.9-22.2,63.9-16.3,32.2,7.2,42.4,21,50.6,45.8-4.5-5.5-9.3-10.9-14.7-16-29.6-28.1-52.8-23.1-85.8-4.2-5.3,2.7-10.7,5.8-15.8,6.4-1,.1-1.7,1-1.7,2,1.4,7,30.7-9.1,36-10.2,31.7-13.8,51.5,4.6,68,27.6-7.9-4.7-17.2-6.6-26-3.3-1.8.7-1.4,3.6.6,3.7,12.3,1.7,21.6,11.5,26.5,22.1-9.6-6.7-19.7-13.7-30.7-19.4-16.2-8.5-34.6-13.5-52.7-13.9-8.8-.3-17.2.9-26,.4-20.8-1.3-43-4.1-61.3-14.8-3.4-2.3-6.7-5.2-7.3-9,0-.6-.6-1-1.2-1-.6,0-1.1.6-1,1.2.5,5.1,4.1,8.7,7.5,11.5,10.7,8.1,23.7,12.2,36.5,15.8,12.9,3.4,26.1,5.8,39.5,6.1,36.4-.2,60.1,16.4,85.8,37.5,6.3,5.1,8.1,13.8,4.5,21.1-1.7,3.3-3.2,6.8-4.4,10.3-2.4-21.7-17.7-37.8-43-41.8-3.6-.6-13.2-2.3-16.9-3-29.1-6.3-60.5-11.7-84.7-30.1-8.5-1,14.8,14.4,17.3,15.4,17.5,9.6,36.5,16.4,55.7,22.1-25.8,1.7-50.1,11.4-75.5,13-2.6,0-2.6,3.8,0,3.9,26.2.4,51.9-7.8,77.6-7.1,16.5,2.4,31.9,6.6,41.5,18.7-5.4-3.2-11.1-5.9-17.2-7.6-23.4-6.7-46.7.4-66.8,11.6-15.5,6.5-34.5-2.7-45.8-14.3-.7-.7-1.8-.9-2.6-.3-.9.6-1,1.8-.4,2.7,4.2,5.6,9.6,10.2,15.6,13.8,6,3.6,12.6,6.4,19.8,7.6,7.2,1.4,15.1,0,21.7-3.5,12.7-5.5,27.5-9,41.3-7.5-3.7,0-7.4.3-11,.6-19.5,2.1-36,14.3-48.5,28.3-14.9,16-41.9,16.5-47.2-8.3-.5-2.4-4.2-1.8-3.8.7,2.4,18.7,21.9,29.3,39.4,22.8,8.1-2.6,15.2-7.9,21.3-13.6,6-5.4,12.7-9.9,19.9-13.1-9.6,6.1-18.8,14.5-27.1,25.2-5.8,7.8-10,16.8-13.7,25.5-6.9,17.4-19.7,30.5-34.9,40.9-2.1,1.4,0,4.5,2.1,3.2,8.1-5,15.9-10.5,22.8-17.3,10.6-10,16.4-23.5,23.3-35.8,20.3-33.4,64.4-56.4,98.3-28.9Z"/>
  </g>
  <path class="st0" d="M842.9,54.6c-.5-1-1.6-1.3-2.6-.9-8,4-16,7.8-23.7,12.2-54.1,30.2-106,64.5-157.6,98.7-37.2,25.2-74.5,50.1-111.1,76-4-4.2-8.2-8.2-12.5-11.9,1.1-1.4,2.2-2.9,3.1-4.6,6.3-12.7,2.3-28.9-7.2-38.9-10.7-11.7-26.4-15.3-41.4-17.1-8.9-1.4-17.7-3.4-26.4-5.5,3.5-8.6,6.4-35.3-2.9-44.1-8-7.5-18.5-10.4-28.1-11.9-11.9-1.5-23.5-1.2-35-.8-2.2,0-2.6,3.3-.5,3.8,16.4,4.8,33.6,5.9,48.7,12.6,2.5,1.4,4.7,2.4,5.2,4.3,0,1.8-1.5,3.9-2.9,5.1-5.8,4.5-13.1,5.4-20.7,6.5-10.9,1.3-22.3,1.4-33.9,2.2-.8,0-1.6.3-1.9,1.1-.5,1,0,2.1.9,2.5,12.3,5.7,24.7,10.7,37.3,15.6,18.1,7.2,38.6,14.4,57,21.1,10.5,3.4,23.2,8.4,29.5,17.5,4,5.4,5.1,11.4,3.6,17.4-2.1,6-9.2,8.7-16.5,10.2-7.1,1-13.9-.2-21.1,1.9-4.8,1.2-9.7,4.2-13,8.2-1.2,1.5-2.3,3.8-4.1,4.8-6,4.2-16.4,3.6-22.5-.8-11.7-9-6.4-25.4,3.1-35,1.4-1.3.1-3.9-1.8-3.4-7.3,1.5-14,7-17.3,14.5-7.5,15.9,3.3,35.9,21.2,37.7,10.4,1.5,23-2,28.6-12,3.8-4.8,10.6-5.7,16.6-4.8,12.4,3,28.7,4.1,39.2-4.8,3.9,3.8,7.6,7.8,11.1,11.9-19.7,14-39.2,28.4-58.3,43.3-7.8,6.7-3.2,13.9,9,13.1,12.2-.8,27.8-3.3,40-5.8s24.1-5.2,34-7.7c8.8,25.8,9.8,54.4,4.6,81.5,1-6.3.2-12.7-3.7-18-10.5-11.3-27.1-12.4-41.5-12.3-30.3.6-56.7,13.5-72,40.8-18.4,32.9,10.2,65.2,44.6,61.7,15-1.3,27.8-8.7,38.5-17.2,15.6-12.9,28.3-29.8,32.9-49.6-2.2,10-5.2,19.7-9,29.1-28,66.7-89.2,96.1-159.4,80.4-43.6-8.2-75.8-38.2-112.4-61-11.4-2.8,15.2,27.5,18,29.8,8,8.1,17.1,15.3,27,21.4,79.2,50.2,193.8,16.6,235.5-66.6,16-37.5,19-83.2,4.6-121.9,26.8-6.5,53.7-12.7,80.7-18.8,39.6-8.6,79.3-17.6,119.2-24.2,2.6-.4,1.9-4.1-.5-3.8-52.1,7.3-103.8,16.4-155.3,26.6,12.3-4.1,24.5-8.1,36.8-12.1,41.7-12.9,83.8-26.5,127.1-32.9,2.6-.3,2-4.1-.4-3.8-44,4.9-86.6,17-129.1,28.4-5.9,1.7-11.9,3.4-17.8,5.1,51.2-20.4,102.9-39.8,156.2-53.7,2.6-.7,1.4-4.2-.8-3.8-46.8,10.1-92.1,25.4-137.2,40.8-4,1.4-7.9,2.8-11.9,4.2,52.1-23.7,104.8-46.5,158.9-64.6,1-.3,1.7-1.3,1.4-2.4-.3-1-1.3-1.6-2.4-1.4-49.9,14.1-97.5,33.8-145.6,52.6-1.7.7-3.4,1.4-5.1,2.1,53.2-27.8,106.8-54.9,161.5-79.6,1-.4,1.4-1.5,1.1-2.5-.4-1-1.5-1.5-2.5-1.1-52,21-102.7,45-153.4,68.8-9.1,4.4-18.2,8.7-27.3,13.1,63.3-37.4,127.5-73.4,192.2-108.4.9-.5,1.3-1.6.8-2.6-.5-1-1.6-1.3-2.6-.9-58,29.5-116.1,58.7-173.3,89.6,46.5-30.7,93.4-60.9,141-89.9,14-8.4,28.1-17.1,42.6-24.1.9-.4,1.3-1.6.9-2.5-.4-1-1.6-1.4-2.5-1-59.1,28.9-114.2,64.4-170.6,97.9-8.4,5.2-16.8,10.3-25.1,15.5,57.2-41.3,115-81.6,174.8-119,10.9-6.6,23.3-13.8,34.6-19.6.9-.5,1.3-1.6.8-2.6ZM534,417.7c-10.6,7.1-22.7,12.1-34.6,11.9-16.5.3-33.6-11.1-34.4-28.2-.8-12.7,8.2-24.4,17.1-33.3,11.9-12,29-16.4,45.8-18.1,10.9-.8,25.8-.7,33.8,6.5,17.6,19.8-11.2,50.2-27.7,61.2Z"/>
  <path class="st0" d="M382.6,195.7c-2.3,1.2-4.8,2.2-7.4,3.2-.7-10-8.5-23.5-17.2-27.1,4.3-5.7,8.2-11.6,11.6-17.5,1.1-1.8-1.4-3.9-3-2.4-40,37.2-48.6,50.9-106.7,46.8-1.4,0-1.7,2-.5,2.4,8.7,3,17.6,5.2,27,6.1,22.3,23.2,79.6,14.9,98.8-8.5,1.4-1.6-.7-4.1-2.5-2.9Z"/>
</svg>